<svg width="1200" height="726" viewBox="0 0 1200 726"
     xmlns="http://www.w3.org/2000/svg"
     font-family="system-ui, -apple-system, 'Segoe UI', sans-serif">

  <defs>
    <!-- Arrow markers -->
    <marker id="a-slate"  markerWidth="8" markerHeight="8" refX="6" refY="4" orient="auto"><path d="M0,0.5 L0,7.5 L8,4 z" fill="#64748b"/></marker>
    <marker id="a-green"  markerWidth="8" markerHeight="8" refX="6" refY="4" orient="auto"><path d="M0,0.5 L0,7.5 L8,4 z" fill="#059669"/></marker>
    <marker id="a-violet" markerWidth="8" markerHeight="8" refX="6" refY="4" orient="auto"><path d="M0,0.5 L0,7.5 L8,4 z" fill="#7c3aed"/></marker>
    <marker id="a-blue"   markerWidth="8" markerHeight="8" refX="6" refY="4" orient="auto"><path d="M0,0.5 L0,7.5 L8,4 z" fill="#1a73e8"/></marker>
    <marker id="a-amber"  markerWidth="8" markerHeight="8" refX="6" refY="4" orient="auto"><path d="M0,0.5 L0,7.5 L8,4 z" fill="#d97706"/></marker>

    <!-- Drop shadow -->
    <filter id="sh" x="-5%" y="-5%" width="110%" height="110%">
      <feDropShadow dx="0" dy="2" stdDeviation="4" flood-color="#0000001a"/>
    </filter>

    <!-- Subtle grid pattern for background -->
    <pattern id="grid" width="28" height="28" patternUnits="userSpaceOnUse">
      <path d="M28,0 L0,0 L0,28" fill="none" stroke="#e2e8f0" stroke-width="0.6"/>
    </pattern>
  </defs>

  <!-- ── Background ── -->
  <rect width="1200" height="726" fill="#f8fafc"/>
  <rect width="1200" height="726" fill="url(#grid)" opacity="0.6"/>

  <!-- ══════════════════════════════════════════════ -->
  <!--  TITLE                                         -->
  <!-- ══════════════════════════════════════════════ -->
  <text x="600" y="34" text-anchor="middle" font-size="24" font-weight="800" fill="#0f172a"
        letter-spacing="-0.5">Babble — System Architecture</text>
  <text x="600" y="54" text-anchor="middle" font-size="12" fill="#64748b">
    AI baby monitor · Gemini 2.5 Flash + Live API · FastAPI · Cloud Run · Firestore
  </text>

  <!-- ══════════════════════════════════════════════ -->
  <!--  BOX 1 — FRONTEND PWA  (x=14 w=228 h=532)     -->
  <!-- ══════════════════════════════════════════════ -->
  <rect x="14" y="68" width="228" height="532" fill="white" stroke="#6366f1" stroke-width="2"
        rx="14" filter="url(#sh)"/>
  <!-- header -->
  <rect x="14" y="68" width="228" height="44" fill="#6366f1" rx="14"/>
  <rect x="14" y="96"  width="228" height="16" fill="#6366f1"/>
  <text x="128" y="94"  text-anchor="middle" font-size="15" font-weight="700" fill="white">📱  Frontend PWA</text>
  <text x="128" y="110" text-anchor="middle" font-size="10" fill="#c7d2fe">Browser / Phone — zero install</text>

  <!-- chip helper: used as visual section dividers -->
  <!-- S1: Audio Pipeline -->
  <rect x="26" y="126" width="102" height="17" fill="#e0e7ff" rx="8.5"/>
  <text x="34" y="138" font-size="9.5" font-weight="700" fill="#4338ca" letter-spacing="0.4">AUDIO PIPELINE</text>
  <text x="26" y="157" font-size="10" fill="#374151">• MediaRecorder — WebM / Opus 48 kHz</text>
  <text x="26" y="173" font-size="10" fill="#374151">• WebAudio VAD  (RMS + spectral gate)</text>
  <text x="26" y="189" font-size="10" fill="#374151">• 15 s clips · IndexedDB cache · overlap</text>
  <text x="26" y="205" font-size="10" fill="#374151">• Last 3 clips sent as Gemini context</text>

  <line x1="22" y1="215" x2="234" y2="215" stroke="#e0e7ff" stroke-width="1"/>

  <!-- S2: UI Screens -->
  <rect x="26" y="222" width="76" height="17" fill="#e0e7ff" rx="8.5"/>
  <text x="34" y="234" font-size="9.5" font-weight="700" fill="#4338ca" letter-spacing="0.4">UI SCREENS</text>
  <text x="26" y="253" font-size="10" fill="#374151">• Today's Log — polls /events every 3 s</text>
  <text x="26" y="269" font-size="10" fill="#374151">• Day Summary — structured + tweet card</text>
  <text x="26" y="285" font-size="10" fill="#374151">• Yesterday card · Debug clip panel</text>

  <line x1="22" y1="295" x2="234" y2="295" stroke="#e0e7ff" stroke-width="1"/>

  <!-- S3: Voice Overlays -->
  <rect x="26" y="302" width="130" height="17" fill="#e0e7ff" rx="8.5"/>
  <text x="34" y="314" font-size="9.5" font-weight="700" fill="#4338ca" letter-spacing="0.4">VOICE OVERLAYS  (WS)</text>
  <text x="26" y="333" font-size="10" fill="#374151">• Edit Log — fix / add events by voice</text>
  <text x="26" y="349" font-size="10" fill="#374151">• Companion — warm parenting chat</text>
  <text x="26" y="365" font-size="10" fill="#374151">• Bidirectional PCM audio stream</text>

  <line x1="22" y1="375" x2="234" y2="375" stroke="#e0e7ff" stroke-width="1"/>

  <!-- S4: Caregiver Profiles -->
  <rect x="26" y="382" width="122" height="17" fill="#e0e7ff" rx="8.5"/>
  <text x="34" y="394" font-size="9.5" font-weight="700" fill="#4338ca" letter-spacing="0.4">CAREGIVER PROFILES</text>
  <text x="26" y="413" font-size="10" fill="#374151">• Voice reference + normal-tone clips</text>
  <text x="26" y="429" font-size="10" fill="#374151">• Speaker ID — confirmed after 2 clips</text>
  <text x="26" y="445" font-size="10" fill="#374151">• Pitch / pace shift → baby-talk detect</text>

  <line x1="22" y1="455" x2="234" y2="455" stroke="#e0e7ff" stroke-width="1"/>

  <!-- S5: Local State -->
  <rect x="26" y="462" width="82" height="17" fill="#e0e7ff" rx="8.5"/>
  <text x="34" y="474" font-size="9.5" font-weight="700" fill="#4338ca" letter-spacing="0.4">LOCAL STATE</text>
  <text x="26" y="493" font-size="10" fill="#374151">• Baby profile — localStorage</text>
  <text x="26" y="509" font-size="10" fill="#374151">• Optimistic event merge (no re-fetch)</text>
  <text x="26" y="525" font-size="10" fill="#374151">• Midnight auto-reset + Wake Lock</text>
  <text x="26" y="541" font-size="10" fill="#374151">• Service Worker (PWA / offline shell)</text>
  <text x="26" y="563" font-size="10" font-style="italic" fill="#6366f1">Any browser · no install required</text>

  <!-- ══════════════════════════════════════════════ -->
  <!--  BOX 2 — FASTAPI BACKEND  (x=280 w=252 h=532) -->
  <!-- ══════════════════════════════════════════════ -->
  <rect x="280" y="68" width="252" height="532" fill="white" stroke="#059669" stroke-width="2"
        rx="14" filter="url(#sh)"/>
  <rect x="280" y="68"  width="252" height="44" fill="#059669" rx="14"/>
  <rect x="280" y="96"  width="252" height="16" fill="#059669"/>
  <text x="406" y="94"  text-anchor="middle" font-size="15" font-weight="700" fill="white">⚙️  FastAPI Backend</text>
  <text x="406" y="110" text-anchor="middle" font-size="10" fill="#a7f3d0">Cloud Run · Python 3.11 · asyncio</text>

  <!-- S1: POST /analyze -->
  <rect x="292" y="126" width="150" height="17" fill="#d1fae5" rx="8.5"/>
  <text x="300" y="138" font-size="9.5" font-weight="700" fill="#065f46" letter-spacing="0.4">POST /analyze</text>
  <text x="292" y="157" font-size="10" fill="#374151">• Base64 audio → Gemini 2.5 Flash</text>
  <text x="292" y="173" font-size="10" fill="#374151">• Confidence filter ≥ 70  (vague: ≥ 80)</text>
  <text x="292" y="189" font-size="10" fill="#374151">• Dedup (15-min / 35% word overlap)</text>
  <text x="292" y="205" font-size="10" fill="#374151">• Enrich past events in-place</text>
  <text x="292" y="221" font-size="10" fill="#374151">• Auto-summarize as background task</text>

  <line x1="288" y1="231" x2="524" y2="231" stroke="#d1fae5" stroke-width="1"/>

  <!-- S2: Event CRUD -->
  <rect x="292" y="238" width="84" height="17" fill="#d1fae5" rx="8.5"/>
  <text x="300" y="250" font-size="9.5" font-weight="700" fill="#065f46" letter-spacing="0.4">EVENT CRUD</text>
  <text x="292" y="269" font-size="10" fill="#374151">• GET  /events?date=YYYY-MM-DD</text>
  <text x="292" y="285" font-size="10" fill="#374151">• PATCH /events/{id} — field merge</text>
  <text x="292" y="301" font-size="10" fill="#374151">• DELETE /events/{id}</text>

  <line x1="288" y1="311" x2="524" y2="311" stroke="#d1fae5" stroke-width="1"/>

  <!-- S3: Summary -->
  <rect x="292" y="318" width="108" height="17" fill="#d1fae5" rx="8.5"/>
  <text x="300" y="330" font-size="9.5" font-weight="700" fill="#065f46" letter-spacing="0.4">DAILY SUMMARY</text>
  <text x="292" y="349" font-size="10" fill="#374151">• POST /summary/generate — on-demand</text>
  <text x="292" y="365" font-size="10" fill="#374151">• GET  /summary?date= — Firestore cache</text>

  <line x1="288" y1="375" x2="524" y2="375" stroke="#d1fae5" stroke-width="1"/>

  <!-- S4: Voice WS Bridge -->
  <rect x="292" y="382" width="172" height="17" fill="#d1fae5" rx="8.5"/>
  <text x="300" y="394" font-size="9.5" font-weight="700" fill="#065f46" letter-spacing="0.4">VOICE WS BRIDGE  (Gemini Live)</text>
  <text x="292" y="413" font-size="10" fill="#374151">• WS /ws/voice/edit-log</text>
  <text x="292" y="429" font-size="10" fill="#6b7280">    Proxies PCM ↔ Gemini Live</text>
  <text x="292" y="445" font-size="10" fill="#6b7280">    EDIT_CMD JSON → Firestore</text>
  <text x="292" y="461" font-size="10" fill="#374151">• WS /ws/voice/companion</text>
  <text x="292" y="477" font-size="10" fill="#6b7280">    Warm chat · re-summarizes on close</text>

  <line x1="288" y1="487" x2="524" y2="487" stroke="#d1fae5" stroke-width="1"/>

  <!-- S5: Profiles & Stats -->
  <rect x="292" y="494" width="114" height="17" fill="#d1fae5" rx="8.5"/>
  <text x="300" y="506" font-size="9.5" font-weight="700" fill="#065f46" letter-spacing="0.4">PROFILES &amp; STATS</text>
  <text x="292" y="525" font-size="10" fill="#374151">• Voice reference · caregiver baselines</text>
  <text x="292" y="541" font-size="10" fill="#374151">• Token / cost counters  (atomic)</text>
  <text x="292" y="557" font-size="10" fill="#374151">• Structured error + info logs</text>
  <text x="292" y="579" font-size="10" font-style="italic" fill="#059669">Stateless · scales to zero on Cloud Run</text>

  <!-- ══════════════════════════════════════════════════════════ -->
  <!--  GOOGLE AI PLATFORM WRAPPER  (x=562 y=58 w=624 h=550)    -->
  <!-- ══════════════════════════════════════════════════════════ -->
  <rect x="562" y="58" width="624" height="552" fill="#f0f7ff" stroke="#4285f4"
        stroke-width="1.5" stroke-dasharray="8,4" rx="18" opacity="0.9"/>
  <rect x="688" y="48" width="172" height="22" fill="#f0f7ff"/>
  <text x="774" y="63" text-anchor="middle" font-size="11" font-weight="700" fill="#4285f4"
        letter-spacing="0.3">☁  Google AI Platform</text>

  <!-- ══════════════════════════════════════════════════════════ -->
  <!--  BOX 3A — GEMINI 2.5 FLASH  (x=572 y=74 w=254 h=254)    -->
  <!-- ══════════════════════════════════════════════════════════ -->
  <rect x="572" y="74" width="254" height="254" fill="white" stroke="#1a73e8" stroke-width="2"
        rx="12" filter="url(#sh)"/>
  <rect x="572" y="74"  width="254" height="44" fill="#1a73e8" rx="12"/>
  <rect x="572" y="102" width="254" height="16" fill="#1a73e8"/>
  <text x="699" y="99"  text-anchor="middle" font-size="14" font-weight="700" fill="white">✨  Gemini 2.5 Flash</text>
  <text x="699" y="114" text-anchor="middle" font-size="10" fill="#bfdbfe">REST API · Multimodal · Non-streaming</text>

  <rect x="584" y="128" width="100" height="17" fill="#dbeafe" rx="8.5"/>
  <text x="592" y="140" font-size="9.5" font-weight="700" fill="#1d4ed8" letter-spacing="0.4">analyze_audio()</text>
  <text x="584" y="159" font-size="10" fill="#374151">• Audio + prompt + reference clips</text>
  <text x="584" y="175" font-size="10" fill="#374151">• events_today context (dedup guard)</text>
  <text x="584" y="191" font-size="10" fill="#374151">• Returns events JSON, conf 0–100</text>
  <text x="584" y="207" font-size="10" fill="#374151">• caregiver_hint + audio_signature</text>

  <line x1="580" y1="217" x2="818" y2="217" stroke="#dbeafe" stroke-width="1"/>

  <rect x="584" y="224" width="112" height="17" fill="#dbeafe" rx="8.5"/>
  <text x="592" y="236" font-size="9.5" font-weight="700" fill="#1d4ed8" letter-spacing="0.4">generate_summary()</text>
  <text x="584" y="255" font-size="10" fill="#374151">• All events → structured JSON</text>
  <text x="584" y="271" font-size="10" fill="#374151">• eating · nap · diaper · play · health</text>
  <text x="584" y="287" font-size="10" fill="#374151">• Milestone · tweet · age-specific tips</text>
  <text x="584" y="314" font-size="9" font-style="italic" fill="#1a73e8">gemini-2.5-flash</text>

  <!-- ══════════════════════════════════════════════════════════ -->
  <!--  BOX 3B — GEMINI LIVE API  (x=572 y=342 w=254 h=252)    -->
  <!-- ══════════════════════════════════════════════════════════ -->
  <rect x="572" y="342" width="254" height="252" fill="white" stroke="#7c3aed" stroke-width="2"
        rx="12" filter="url(#sh)"/>
  <rect x="572" y="342" width="254" height="44" fill="#7c3aed" rx="12"/>
  <rect x="572" y="370" width="254" height="16" fill="#7c3aed"/>
  <text x="699" y="367" text-anchor="middle" font-size="14" font-weight="700" fill="white">🎙  Gemini Live API</text>
  <text x="699" y="381" text-anchor="middle" font-size="10" fill="#ddd6fe">Native Audio · Real-time bidirectional</text>

  <rect x="584" y="396" width="106" height="17" fill="#ede9fe" rx="8.5"/>
  <text x="592" y="408" font-size="9.5" font-weight="700" fill="#5b21b6" letter-spacing="0.4">EDIT LOG SESSION</text>
  <text x="584" y="427" font-size="10" fill="#374151">• Bidirectional PCM audio stream</text>
  <text x="584" y="443" font-size="10" fill="#374151">• Parses EDIT_CMD JSON from speech</text>
  <text x="584" y="459" font-size="10" fill="#374151">• Applies update/delete/add live</text>

  <line x1="580" y1="469" x2="818" y2="469" stroke="#ede9fe" stroke-width="1"/>

  <rect x="584" y="476" width="120" height="17" fill="#ede9fe" rx="8.5"/>
  <text x="592" y="488" font-size="9.5" font-weight="700" fill="#5b21b6" letter-spacing="0.4">COMPANION SESSION</text>
  <text x="584" y="507" font-size="10" fill="#374151">• Warm parenting-support conversation</text>
  <text x="584" y="523" font-size="10" fill="#374151">• Day summary injected as context</text>
  <text x="584" y="539" font-size="10" fill="#374151">• Re-generates summary on close</text>
  <text x="584" y="576" font-size="9" font-style="italic" fill="#7c3aed">gemini-2.5-flash-native-audio-latest</text>

  <!-- ══════════════════════════════════════════════════════════════════ -->
  <!--  RIGHT PANEL — LEGEND + TECH STACK  (x=842 y=74 w=332 h=520)    -->
  <!-- ══════════════════════════════════════════════════════════════════ -->

  <!-- LEGEND -->
  <rect x="842" y="74" width="332" height="176" fill="white" stroke="#e2e8f0" stroke-width="1.5"
        rx="12" filter="url(#sh)"/>
  <rect x="842" y="74"  width="332" height="36" fill="#334155" rx="12"/>
  <rect x="842" y="96"  width="332" height="14" fill="#334155"/>
  <text x="1008" y="97"  text-anchor="middle" font-size="13" font-weight="700" fill="white">Legend</text>

  <!-- Legend rows -->
  <line x1="858" y1="122" x2="894" y2="122" stroke="#64748b" stroke-width="2.5" marker-end="url(#a-slate)"/>
  <text x="900" y="127" font-size="10" fill="#374151">HTTP REST  (JSON payload)</text>

  <line x1="858" y1="144" x2="894" y2="144" stroke="#059669" stroke-width="2.5" marker-end="url(#a-green)"/>
  <text x="900" y="149" font-size="10" fill="#374151">Polling response  (every 3 s)</text>

  <line x1="858" y1="166" x2="894" y2="166" stroke="#7c3aed" stroke-width="2.5"
        stroke-dasharray="7,3" marker-end="url(#a-violet)"/>
  <text x="900" y="171" font-size="10" fill="#374151">WebSocket  (PCM audio stream)</text>

  <line x1="858" y1="188" x2="894" y2="188" stroke="#1a73e8" stroke-width="2.5" marker-end="url(#a-blue)"/>
  <text x="900" y="193" font-size="10" fill="#374151">Gemini API call  (REST)</text>

  <line x1="858" y1="210" x2="894" y2="210" stroke="#d97706" stroke-width="2.5" marker-end="url(#a-amber)"/>
  <text x="900" y="215" font-size="10" fill="#374151">Firestore read / write</text>
  <text x="858" y="238" font-size="9" fill="#64748b">① ② ③ numbers = data-flow order (see arrows)</text>

  <!-- TECH STACK -->
  <rect x="842" y="266" width="332" height="330" fill="white" stroke="#e2e8f0" stroke-width="1.5"
        rx="12" filter="url(#sh)"/>
  <rect x="842" y="266" width="332" height="36" fill="#334155" rx="12"/>
  <rect x="842" y="288" width="332" height="14" fill="#334155"/>
  <text x="1008" y="289" text-anchor="middle" font-size="13" font-weight="700" fill="white">Tech Stack</text>

  <!-- Tech chips: pairs of colored badge + description -->
  <!-- Row 1 -->
  <rect x="858" y="318" width="68" height="18" fill="#dbeafe" rx="9"/>
  <text x="892" y="331" text-anchor="middle" font-size="9.5" font-weight="700" fill="#1d4ed8">GEMINI AI</text>
  <text x="934" y="331" font-size="10" fill="#374151">2.5 Flash  +  Live API</text>

  <!-- Row 2 -->
  <rect x="858" y="346" width="56" height="18" fill="#d1fae5" rx="9"/>
  <text x="886" y="359" text-anchor="middle" font-size="9.5" font-weight="700" fill="#065f46">FASTAPI</text>
  <text x="922" y="359" font-size="10" fill="#374151">Python asyncio · uvicorn</text>

  <!-- Row 3 -->
  <rect x="858" y="374" width="76" height="18" fill="#d1fae5" rx="9"/>
  <text x="896" y="387" text-anchor="middle" font-size="9.5" font-weight="700" fill="#065f46">CLOUD RUN</text>
  <text x="942" y="387" font-size="10" fill="#374151">Serverless · scale-to-zero</text>

  <!-- Row 4 -->
  <rect x="858" y="402" width="74" height="18" fill="#fef3c7" rx="9"/>
  <text x="895" y="415" text-anchor="middle" font-size="9.5" font-weight="700" fill="#92400e">FIRESTORE</text>
  <text x="940" y="415" font-size="10" fill="#374151">NoSQL · real-time · Firebase</text>

  <!-- Row 5 -->
  <rect x="858" y="430" width="46" height="18" fill="#ede9fe" rx="9"/>
  <text x="881" y="443" text-anchor="middle" font-size="9.5" font-weight="700" fill="#5b21b6">PWA</text>
  <text x="912" y="443" font-size="10" fill="#374151">No install · offline shell</text>

  <!-- Row 6 -->
  <rect x="858" y="458" width="46" height="18" fill="#e0e7ff" rx="9"/>
  <text x="881" y="471" text-anchor="middle" font-size="9.5" font-weight="700" fill="#4338ca">WEB</text>
  <text x="912" y="471" font-size="10" fill="#374151">WebAudio + MediaRecorder API</text>

  <line x1="852" y1="490" x2="1166" y2="490" stroke="#f1f5f9" stroke-width="1"/>

  <text x="858" y="510" font-size="10" font-weight="700" fill="#374151">Audio model input</text>
  <text x="858" y="527" font-size="10" fill="#6b7280">WebM/Opus → base64 → Gemini multimodal</text>
  <text x="858" y="545" font-size="10" fill="#6b7280">Reference clips included per-request for</text>
  <text x="858" y="561" font-size="10" fill="#6b7280">voice ID + normal-tone speaker detection</text>

  <line x1="852" y1="574" x2="1166" y2="574" stroke="#f1f5f9" stroke-width="1"/>

  <text x="858" y="590" font-size="10" font-weight="700" fill="#374151">Primary data flow  ①→②→③→④→⑤</text>
  <text x="858" y="607" font-size="10" fill="#6b7280">① Record clip → ② POST /analyze</text>
  <text x="858" y="623" font-size="10" fill="#6b7280">③ Gemini returns events → ④ Firestore</text>
  <text x="858" y="639" font-size="10" fill="#6b7280">⑤ GET /events refresh → UI renders</text>
  <text x="858" y="657" font-size="9" font-style="italic" fill="#64748b">Voice sessions branch from ② via WS</text>
  <text x="858" y="672" font-size="9" font-style="italic" fill="#64748b">Summary auto-triggered after each ④</text>

  <!-- ══════════════════════════════════════════════════════════ -->
  <!--  BOX 4 — FIRESTORE  (x=280 y=618 w=554 h=94)            -->
  <!-- ══════════════════════════════════════════════════════════ -->
  <rect x="280" y="618" width="554" height="94" fill="white" stroke="#d97706" stroke-width="2"
        rx="12" filter="url(#sh)"/>
  <rect x="280" y="618" width="554" height="36" fill="#f59e0b" rx="12"/>
  <rect x="280" y="640" width="554" height="14" fill="#f59e0b"/>
  <text x="557" y="641" text-anchor="middle" font-size="14" font-weight="700" fill="white">🔥  Cloud Firestore</text>

  <!-- 4 collection chips inside Firestore box -->
  <rect x="295" y="664" width="100" height="36" fill="#fffbeb" stroke="#fde68a" stroke-width="1" rx="8"/>
  <text x="345" y="678" text-anchor="middle" font-size="9.5" font-weight="700" fill="#92400e">days/{date}/</text>
  <text x="345" y="693" text-anchor="middle" font-size="9" fill="#6b7280">events · summary</text>

  <rect x="408" y="664" width="110" height="36" fill="#fffbeb" stroke="#fde68a" stroke-width="1" rx="8"/>
  <text x="463" y="678" text-anchor="middle" font-size="9.5" font-weight="700" fill="#92400e">profiles/{baby}/</text>
  <text x="463" y="693" text-anchor="middle" font-size="9" fill="#6b7280">voice · caregivers/</text>

  <rect x="531" y="664" width="136" height="36" fill="#fffbeb" stroke="#fde68a" stroke-width="1" rx="8"/>
  <text x="599" y="678" text-anchor="middle" font-size="9.5" font-weight="700" fill="#92400e">meta/session_stats</text>
  <text x="599" y="693" text-anchor="middle" font-size="9" fill="#6b7280">tokens · cost_usd (atomic incr)</text>

  <rect x="680" y="664" width="140" height="36" fill="#fffbeb" stroke="#fde68a" stroke-width="1" rx="8"/>
  <text x="750" y="678" text-anchor="middle" font-size="9.5" font-weight="700" fill="#92400e">logs/</text>
  <text x="750" y="693" text-anchor="middle" font-size="9" fill="#6b7280">ERROR · INFO · timestamps</text>

  <!-- ══════════════════════════════════════════════════════════ -->
  <!--  ARROWS                                                    -->
  <!-- ══════════════════════════════════════════════════════════ -->

  <!-- ① Audio clip: Frontend → Backend (POST /analyze) -->
  <line x1="243" y1="152" x2="279" y2="152" stroke="#64748b" stroke-width="2.5" fill="none" marker-end="url(#a-slate)"/>
  <rect x="242" y="134" width="39" height="14" fill="#64748b" rx="7"/>
  <text x="261" y="144" text-anchor="middle" font-size="8.5" font-weight="600" fill="white">①  audio</text>

  <!-- ② Events: Backend → Frontend (polling) -->
  <line x1="279" y1="176" x2="243" y2="176" stroke="#059669" stroke-width="2.5" fill="none" marker-end="url(#a-green)"/>
  <rect x="244" y="179" width="35" height="14" fill="#059669" rx="7"/>
  <text x="261" y="189" text-anchor="middle" font-size="8.5" font-weight="600" fill="white">②  events</text>

  <!-- ③ WS voice: Frontend ↔ Backend -->
  <line x1="243" y1="400" x2="279" y2="400" stroke="#7c3aed" stroke-width="2" stroke-dasharray="6,3" fill="none" marker-end="url(#a-violet)"/>
  <line x1="279" y1="418" x2="243" y2="418" stroke="#7c3aed" stroke-width="2" stroke-dasharray="6,3" fill="none" marker-end="url(#a-violet)"/>
  <rect x="242" y="404" width="38" height="14" fill="#7c3aed" rx="7"/>
  <text x="261" y="414" text-anchor="middle" font-size="8.5" font-weight="600" fill="white">③  voice</text>

  <!-- ④ Analyze request: Backend → Gemini Flash -->
  <line x1="533" y1="155" x2="571" y2="155" stroke="#1a73e8" stroke-width="2.5" fill="none" marker-end="url(#a-blue)"/>
  <rect x="532" y="137" width="41" height="14" fill="#1a73e8" rx="7"/>
  <text x="552" y="147" text-anchor="middle" font-size="8.5" font-weight="600" fill="white">④ audio</text>

  <!-- ④ Events response: Gemini Flash → Backend -->
  <line x1="571" y1="179" x2="533" y2="179" stroke="#1a73e8" stroke-width="2.5" fill="none" marker-end="url(#a-blue)"/>
  <rect x="533" y="182" width="38" height="14" fill="#1a73e8" rx="7"/>
  <text x="552" y="192" text-anchor="middle" font-size="8.5" font-weight="600" fill="white">events</text>

  <!-- Summary request: Backend → Gemini Flash -->
  <line x1="533" y1="284" x2="571" y2="284" stroke="#1a73e8" stroke-width="2" fill="none" marker-end="url(#a-blue)"/>
  <rect x="530" y="267" width="44" height="14" fill="#1a73e8" rx="7"/>
  <text x="552" y="277" text-anchor="middle" font-size="8.5" font-weight="600" fill="white">all events</text>

  <!-- Summary response: Gemini Flash → Backend -->
  <line x1="571" y1="304" x2="533" y2="304" stroke="#1a73e8" stroke-width="2" fill="none" marker-end="url(#a-blue)"/>
  <rect x="532" y="307" width="40" height="14" fill="#1a73e8" rx="7"/>
  <text x="552" y="317" text-anchor="middle" font-size="8.5" font-weight="600" fill="white">summary</text>

  <!-- ⑤ Voice WS: Backend ↔ Gemini Live -->
  <line x1="533" y1="410" x2="571" y2="410" stroke="#7c3aed" stroke-width="2" stroke-dasharray="6,3" fill="none" marker-end="url(#a-violet)"/>
  <line x1="571" y1="430" x2="533" y2="430" stroke="#7c3aed" stroke-width="2" stroke-dasharray="6,3" fill="none" marker-end="url(#a-violet)"/>
  <rect x="531" y="413" width="42" height="14" fill="#7c3aed" rx="7"/>
  <text x="552" y="423" text-anchor="middle" font-size="8.5" font-weight="600" fill="white">⑤  PCM</text>

  <!-- ⑤ Firestore: Backend ↔ Firestore  (two separate arrows) -->
  <line x1="392" y1="601" x2="392" y2="617" stroke="#d97706" stroke-width="2.5" fill="none" marker-end="url(#a-amber)"/>
  <line x1="416" y1="617" x2="416" y2="601" stroke="#d97706" stroke-width="2.5" fill="none" marker-end="url(#a-amber)"/>
  <rect x="422" y="603" width="60" height="14" fill="#d97706" rx="7"/>
  <text x="452" y="613" text-anchor="middle" font-size="8.5" font-weight="600" fill="white">read / write</text>

</svg>
